<svg width="24" height="24" viewBox="0 0 24 24" fill="none" xmlns="http://www.w3.org/2000/svg">
<path fill-rule="evenodd" clip-rule="evenodd" d="M15.375 3.9C15.72 3.9 16.065 4.035 16.335 4.29C16.5869 4.543 16.7283 4.88548 16.7283 5.2425C16.7283 5.59952 16.5869 5.942 16.335 6.195L10.53 12L16.335 17.79C16.5869 18.043 16.7283 18.3855 16.7283 18.7425C16.7283 19.0995 16.5869 19.442 16.335 19.695C16.082 19.9469 15.7395 20.0883 15.3825 20.0883C15.0254 20.0883 14.683 19.9469 14.43 19.695L7.67996 12.945C7.42806 12.692 7.28664 12.3495 7.28664 11.9925C7.28664 11.6355 7.42806 11.293 7.67996 11.04L14.43 4.29C14.685 4.035 15.03 3.9 15.375 3.9Z" fill="#96A1B2"/>
</svg>
