<svg width="24" height="27" viewBox="0 0 24 27" fill="none" xmlns="http://www.w3.org/2000/svg">
<path d="M2.14844 21.1821C1.48926 21.1821 0.964355 21.0112 0.57373 20.6694C0.191243 20.3276 0 19.876 0 19.3145C0 18.8669 0.109863 18.4437 0.32959 18.0449C0.557454 17.6462 0.842285 17.2677 1.18408 16.9097C1.53402 16.5435 1.89209 16.1854 2.2583 15.8354C2.55941 15.5588 2.78727 15.1925 2.94189 14.7368C3.10466 14.2811 3.22673 13.7765 3.30811 13.2231C3.39762 12.6616 3.47493 12.092 3.54004 11.5142C3.61328 10.0656 3.8208 8.76351 4.1626 7.60791C4.51253 6.45231 5.02116 5.47575 5.68848 4.67822C6.35579 3.8807 7.21029 3.29476 8.25195 2.92041C8.51237 2.11475 8.9681 1.44336 9.61914 0.90625C10.2702 0.361003 11.0433 0.0883789 11.9385 0.0883789C12.5977 0.0883789 13.1877 0.234863 13.7085 0.527832C13.2284 1.04867 12.8459 1.65495 12.561 2.34668C12.2843 3.03027 12.146 3.75456 12.146 4.51953C12.146 5.60189 12.4146 6.59473 12.9517 7.49805C13.4969 8.40137 14.2171 9.12565 15.1123 9.6709C16.0156 10.208 17.0125 10.4766 18.103 10.4766C18.4937 10.4766 18.868 10.4399 19.2261 10.3667C19.5923 10.2853 19.9463 10.1714 20.2881 10.0249C20.3288 10.3911 20.3654 10.7655 20.3979 11.1479C20.4386 11.5304 20.4712 11.917 20.4956 12.3076C20.5363 12.7552 20.5973 13.2028 20.6787 13.6504C20.7601 14.098 20.8781 14.5171 21.0327 14.9077C21.1873 15.2902 21.3908 15.5994 21.6431 15.8354C22.0093 16.1854 22.3633 16.5435 22.7051 16.9097C23.055 17.2677 23.3398 17.6462 23.5596 18.0449C23.7874 18.4437 23.9014 18.8669 23.9014 19.3145C23.9014 19.876 23.7061 20.3276 23.3154 20.6694C22.9329 21.0112 22.4121 21.1821 21.7529 21.1821H2.14844ZM11.9507 26.3091C11.2183 26.3091 10.5591 26.1504 9.97314 25.833C9.39534 25.5238 8.92741 25.1087 8.56934 24.5879C8.21126 24.0752 8.00781 23.5177 7.95898 22.9155H15.9546C15.8976 23.5177 15.6942 24.0752 15.3442 24.5879C14.9943 25.1087 14.5264 25.5238 13.9404 25.833C13.3545 26.1504 12.6912 26.3091 11.9507 26.3091ZM18.1152 8.71875C17.3421 8.71875 16.6382 8.53158 16.0034 8.15723C15.3687 7.77474 14.86 7.26611 14.4775 6.63135C14.1032 5.98844 13.916 5.28451 13.916 4.51953C13.916 3.75456 14.1032 3.05469 14.4775 2.41992C14.86 1.77702 15.3687 1.26839 16.0034 0.894043C16.6382 0.511556 17.3421 0.320312 18.1152 0.320312C18.8802 0.320312 19.5801 0.511556 20.2148 0.894043C20.8577 1.26839 21.3664 1.77702 21.7407 2.41992C22.1232 3.05469 22.3145 3.75456 22.3145 4.51953C22.3145 5.28451 22.1232 5.98844 21.7407 6.63135C21.3664 7.26611 20.8577 7.77474 20.2148 8.15723C19.5801 8.53158 18.8802 8.71875 18.1152 8.71875Z" fill="#767676"/>
<circle cx="17.9854" cy="4.5" r="4.5" fill="#E44B52"/>
</svg>
