<svg width="13" height="13" viewBox="0 0 13 13" fill="fill" xmlns="http://www.w3.org/2000/svg">
<path d="M3.94667 9.2487C3.32167 8.6237 2.75961 7.96615 2.26047 7.27604C1.76134 6.58594 1.36638 5.898 1.07558 5.21224C0.784781 4.52214 0.639381 3.86458 0.639381 3.23958C0.639381 2.82292 0.710996 2.43229 0.854225 2.06771C1.00179 1.69878 1.234 1.36241 1.55084 1.05859C1.94146 0.68099 2.3603 0.492188 2.80735 0.492188C2.98096 0.492188 3.14589 0.52908 3.30214 0.602865C3.45839 0.672309 3.59294 0.785156 3.70579 0.941406L5.10553 2.91406C5.21403 3.06597 5.29433 3.20703 5.34641 3.33724C5.40284 3.46745 5.43105 3.59115 5.43105 3.70833C5.43105 3.8559 5.38982 3.99913 5.30735 4.13802C5.22488 4.27691 5.11204 4.42014 4.96881 4.56771L4.50657 5.04297C4.44146 5.10807 4.40891 5.18837 4.40891 5.28385C4.40891 5.3316 4.41542 5.37934 4.42844 5.42708C4.4458 5.47049 4.46317 5.50955 4.48053 5.54427C4.58469 5.74392 4.77133 6.00217 5.04042 6.31901C5.30952 6.63585 5.60249 6.95486 5.91933 7.27604C6.24051 7.59722 6.55952 7.89236 6.87636 8.16146C7.1932 8.42622 7.45362 8.61285 7.65761 8.72135C7.68799 8.73438 7.72488 8.74957 7.76829 8.76693C7.81603 8.78429 7.86594 8.79297 7.91803 8.79297C8.01785 8.79297 8.10032 8.75825 8.16542 8.6888L8.62766 8.23307C8.77523 8.0855 8.91846 7.97266 9.05735 7.89453C9.19624 7.81207 9.33947 7.77083 9.48704 7.77083C9.60422 7.77083 9.72792 7.79688 9.85813 7.84896C9.98834 7.90104 10.1294 7.97917 10.2813 8.08333L12.28 9.5026C12.4363 9.61111 12.5469 9.74132 12.612 9.89323C12.6771 10.0408 12.7097 10.197 12.7097 10.362C12.7097 10.5833 12.6598 10.8025 12.56 11.0195C12.4601 11.2409 12.3234 11.447 12.1498 11.638C11.8547 11.9635 11.5248 12.2023 11.1602 12.3542C10.7956 12.5061 10.4028 12.582 9.98183 12.582C9.36117 12.582 8.70362 12.4345 8.00917 12.1393C7.31473 11.8442 6.62028 11.4449 5.92584 10.9414C5.23139 10.4379 4.57167 9.8737 3.94667 9.2487Z" fill="black"/>
</svg>
