<svg width="12" height="12" viewBox="0 0 12 12" fill="none" xmlns="http://www.w3.org/2000/svg">
<path d="M0.735026 11.3711C0.626519 11.2626 0.554904 11.1367 0.520182 10.9935C0.48546 10.8503 0.48546 10.707 0.520182 10.5638C0.554904 10.4206 0.624349 10.2969 0.728516 10.1927L4.60872 6.30599L0.728516 2.42578C0.624349 2.32596 0.554904 2.20443 0.520182 2.0612C0.4898 1.91363 0.4898 1.76823 0.520182 1.625C0.554904 1.48177 0.626519 1.3559 0.735026 1.2474C0.839193 1.13889 0.962891 1.06727 1.10612 1.03255C1.25369 0.99783 1.39909 0.99783 1.54232 1.03255C1.68989 1.06727 1.81576 1.13672 1.91992 1.24089L5.80013 5.12109L9.68034 1.24089C9.7845 1.13672 9.9082 1.06727 10.0514 1.03255C10.1947 0.99783 10.3379 0.99783 10.4811 1.03255C10.6243 1.06727 10.7502 1.14106 10.8587 1.25391C10.9672 1.35807 11.0388 1.48177 11.0736 1.625C11.1126 1.76823 11.1126 1.91146 11.0736 2.05469C11.0388 2.19792 10.9694 2.32161 10.8652 2.42578L6.99154 6.30599L10.8652 10.1927C10.9694 10.2969 11.0388 10.4206 11.0736 10.5638C11.1083 10.707 11.1083 10.8503 11.0736 10.9935C11.0388 11.1367 10.9672 11.2626 10.8587 11.3711C10.7502 11.4796 10.6243 11.5512 10.4811 11.5859C10.3379 11.6207 10.1947 11.6207 10.0514 11.5859C9.9082 11.5512 9.7845 11.4818 9.68034 11.3776L5.80013 7.4974L1.91992 11.3776C1.81576 11.4818 1.69206 11.5512 1.54883 11.5859C1.4056 11.6207 1.2602 11.6207 1.11263 11.5859C0.969401 11.5512 0.843533 11.4796 0.735026 11.3711Z" fill="#434343"/>
</svg>
