<svg width="10" height="18" viewBox="0 0 10 18" fill="none" xmlns="http://www.w3.org/2000/svg">
<path fill-rule="evenodd" clip-rule="evenodd" d="M8.37496 0.89994C8.71996 0.89994 9.06496 1.03494 9.33496 1.28994C9.58685 1.54294 9.72827 1.88542 9.72827 2.24244C9.72827 2.59946 9.58685 2.94194 9.33496 3.19494L3.52996 8.99994L9.33496 14.7899C9.58685 15.0429 9.72827 15.3854 9.72827 15.7424C9.72827 16.0995 9.58685 16.4419 9.33496 16.6949C9.08195 16.9468 8.73947 17.0883 8.38246 17.0883C8.02544 17.0883 7.68296 16.9468 7.42996 16.6949L0.679956 9.94494C0.42806 9.69194 0.28664 9.34946 0.28664 8.99244C0.28664 8.63542 0.42806 8.29294 0.679956 8.03994L7.42996 1.28994C7.68496 1.03494 8.02996 0.89994 8.37496 0.89994Z" fill="#96A1B2"/>
</svg>
