<svg width="19" height="19" viewBox="0 0 19 19" fill="none" xmlns="http://www.w3.org/2000/svg">
<path d="M9.74023 18.8213C8.48633 18.8213 7.30566 18.5811 6.19824 18.1006C5.09082 17.626 4.11523 16.9668 3.27148 16.123C2.42773 15.2793 1.76562 14.3066 1.28516 13.2051C0.810547 12.0977 0.573242 10.9141 0.573242 9.6543C0.573242 8.40039 0.810547 7.22266 1.28516 6.12109C1.76562 5.01367 2.4248 4.03809 3.2627 3.19434C4.10645 2.35059 5.08203 1.69141 6.18945 1.2168C7.29688 0.736328 8.47754 0.496094 9.73145 0.496094C10.9854 0.496094 12.166 0.736328 13.2734 1.2168C14.3867 1.69141 15.3623 2.35059 16.2002 3.19434C17.0439 4.03809 17.7061 5.01367 18.1865 6.12109C18.667 7.22266 18.9072 8.40039 18.9072 9.6543C18.9072 10.9141 18.667 12.0977 18.1865 13.2051C17.7061 14.3066 17.0439 15.2793 16.2002 16.123C15.3623 16.9668 14.3896 17.626 13.2822 18.1006C12.1748 18.5811 10.9941 18.8213 9.74023 18.8213ZM7.1123 13.8643C7.31152 13.8643 7.47266 13.8232 7.5957 13.7412C7.72461 13.6533 7.86523 13.498 8.01758 13.2754L9.69629 10.8408H9.74902L11.3926 13.2754C11.5391 13.4922 11.6768 13.6445 11.8057 13.7324C11.9404 13.8203 12.1045 13.8643 12.2979 13.8643C12.5732 13.8643 12.7959 13.7852 12.9658 13.627C13.1357 13.4688 13.2207 13.2607 13.2207 13.0029C13.2207 12.7803 13.1357 12.5605 12.9658 12.3438L10.9355 9.60156L12.9746 6.8418C13.1504 6.625 13.2383 6.40234 13.2383 6.17383C13.2383 5.93359 13.1533 5.73438 12.9834 5.57617C12.8135 5.41797 12.5967 5.33887 12.333 5.33887C12.1396 5.33887 11.9756 5.38281 11.8408 5.4707C11.7061 5.55273 11.5742 5.70508 11.4453 5.92773L9.83691 8.35352H9.77539L8.13184 5.91895C7.98535 5.70215 7.84473 5.55273 7.70996 5.4707C7.5752 5.38281 7.4082 5.33887 7.20898 5.33887C6.95117 5.33887 6.73438 5.4209 6.55859 5.58496C6.38281 5.74902 6.29492 5.9541 6.29492 6.2002C6.29492 6.42871 6.38574 6.66309 6.56738 6.90332L8.52734 9.56641L6.4707 12.3701C6.30664 12.5869 6.22461 12.8066 6.22461 13.0293C6.22461 13.2695 6.30664 13.4688 6.4707 13.627C6.64062 13.7852 6.85449 13.8643 7.1123 13.8643Z" fill="#96A1B2"/>
</svg>
