<svg width="15" height="15" viewBox="0 0 15 15" fill="none" xmlns="http://www.w3.org/2000/svg">
<path d="M0.469727 14.4043C0.364258 14.3047 0.293945 14.1875 0.258789 14.0527C0.229492 13.918 0.232422 13.7832 0.267578 13.6484C0.302734 13.5137 0.370117 13.3965 0.469727 13.2969L6.09473 7.66309L0.469727 2.03809C0.370117 1.93848 0.302734 1.82129 0.267578 1.68652C0.238281 1.55176 0.238281 1.41699 0.267578 1.28223C0.302734 1.14746 0.370117 1.03027 0.469727 0.930664C0.569336 0.825195 0.686523 0.757812 0.821289 0.728516C0.956055 0.693359 1.09082 0.693359 1.22559 0.728516C1.36621 0.757812 1.48633 0.825195 1.58594 0.930664L7.21094 6.55566L12.8359 0.930664C12.9355 0.825195 13.0527 0.757812 13.1875 0.728516C13.3223 0.693359 13.457 0.693359 13.5918 0.728516C13.7266 0.757812 13.8467 0.825195 13.9521 0.930664C14.0518 1.03027 14.1191 1.14746 14.1543 1.28223C14.1895 1.41699 14.1895 1.55176 14.1543 1.68652C14.1191 1.82129 14.0518 1.93848 13.9521 2.03809L8.32715 7.66309L13.9521 13.2969C14.0518 13.3965 14.1162 13.5137 14.1455 13.6484C14.1807 13.7832 14.1807 13.918 14.1455 14.0527C14.1162 14.1875 14.0518 14.3047 13.9521 14.4043C13.8525 14.5098 13.7324 14.5771 13.5918 14.6064C13.457 14.6416 13.3223 14.6416 13.1875 14.6064C13.0527 14.5713 12.9355 14.5039 12.8359 14.4043L7.21094 8.7793L1.58594 14.4043C1.48633 14.5039 1.36914 14.5713 1.23438 14.6064C1.09961 14.6416 0.964844 14.6416 0.830078 14.6064C0.695312 14.5713 0.575195 14.5039 0.469727 14.4043Z" fill="#96A1B2"/>
</svg>
