<svg width="11" height="17" viewBox="0 0 11 17" fill="none" xmlns="http://www.w3.org/2000/svg">
<path d="M1.4298 1.49609C1.28657 1.49609 1.16287 1.44401 1.0587 1.33984C0.958876 1.23568 0.908963 1.11198 0.908963 0.96875C0.908963 0.825521 0.958876 0.703993 1.0587 0.604167C1.16287 0.5 1.28657 0.447917 1.4298 0.447917H9.91287C10.0561 0.447917 10.1776 0.5 10.2775 0.604167C10.3816 0.703993 10.4337 0.825521 10.4337 0.96875C10.4337 1.11198 10.3816 1.23568 10.2775 1.33984C10.1776 1.44401 10.0561 1.49609 9.91287 1.49609H1.4298ZM5.67459 9.17188C5.01921 9.17188 4.41591 9.13281 3.86469 9.05469C3.31348 8.97656 2.83388 8.86589 2.42589 8.72266C2.02224 8.57509 1.70757 8.40365 1.48188 8.20833C1.25618 8.00868 1.14334 7.7895 1.14334 7.55078C1.14334 7.31641 1.25618 7.10156 1.48188 6.90625C1.70757 6.7066 2.02224 6.53516 2.42589 6.39193C2.83388 6.2487 3.31348 6.13802 3.86469 6.0599C4.41591 5.98177 5.01921 5.94271 5.67459 5.94271C6.32997 5.94271 6.93327 5.98177 7.48448 6.0599C8.0357 6.13802 8.51313 6.2487 8.91677 6.39193C9.32476 6.53516 9.63943 6.7066 9.86079 6.90625C10.0865 7.10156 10.1993 7.31641 10.1993 7.55078C10.1993 7.7895 10.0886 8.00868 9.8673 8.20833C9.64594 8.40365 9.33127 8.57509 8.92329 8.72266C8.51964 8.86589 8.04221 8.97656 7.49099 9.05469C6.93978 9.13281 6.33431 9.17188 5.67459 9.17188ZM5.45323 12.2708C4.72407 12.2708 4.06217 12.1363 3.46756 11.8672C2.87294 11.5938 2.38032 11.2031 1.98969 10.6953C1.59907 10.1875 1.34299 9.57769 1.22146 8.86589C1.65983 9.18707 2.26313 9.43446 3.03136 9.60807C3.80393 9.77734 4.685 9.86198 5.67459 9.86198C6.66851 9.86198 7.54742 9.77734 8.31131 9.60807C9.07954 9.43446 9.685 9.18924 10.1277 8.8724C10.0018 9.57986 9.74143 10.1875 9.34646 10.6953C8.95584 11.2031 8.46322 11.5938 7.8686 11.8672C7.27832 12.1363 6.6186 12.2708 5.88943 12.2708H5.45323ZM5.67459 16.1771C5.31868 16.1771 4.94108 16.1445 4.54178 16.0794C4.14681 16.0143 3.77355 15.9145 3.42198 15.7799C3.07476 15.6454 2.79698 15.4761 2.58865 15.2721C2.50618 15.1853 2.45844 15.0877 2.44542 14.9792C2.43674 14.875 2.44976 14.7643 2.48448 14.6471L3.1225 12.5313C3.47841 12.6832 3.85167 12.7982 4.2423 12.8763C4.63292 12.9544 5.02789 12.9935 5.42719 12.9935H5.89594C6.29959 12.9935 6.69889 12.9544 7.09386 12.8763C7.48882 12.7938 7.86426 12.6745 8.22016 12.5182L8.85818 14.6471C8.8929 14.7643 8.90375 14.875 8.89073 14.9792C8.88205 15.0877 8.83648 15.1853 8.75401 15.2721C8.55002 15.4761 8.27224 15.6454 7.92068 15.7799C7.57346 15.9145 7.2002 16.0143 6.80089 16.0794C6.40158 16.1445 6.02615 16.1771 5.67459 16.1771ZM9.4311 5.8125C8.96669 5.62153 8.4133 5.47613 7.77094 5.3763C7.13292 5.27214 6.43414 5.22005 5.67459 5.22005C4.91504 5.22005 4.21408 5.27214 3.57172 5.3763C2.9337 5.47613 2.38249 5.62153 1.91808 5.8125L1.65766 2.21875H9.685L9.4311 5.8125Z" fill="black"/>
</svg>
