<svg width="18" height="18" viewBox="0 0 18 18" fill="none" xmlns="http://www.w3.org/2000/svg">
<g clip-path="url(#clip0_1391_3172)">
<path d="M4 15.2501H7V11.0001H8V8.25012C8 7.70012 7.805 7.23012 7.41 6.83512C7.015 6.44012 6.545 6.24512 5.995 6.24512H4.995C4.445 6.24512 3.975 6.44012 3.58 6.83512C3.19 7.22512 2.99 7.70012 2.99 8.25012V11.0001H3.99V15.2501H4ZM5.5 5.40012C5.885 5.40012 6.215 5.26012 6.49 4.98512C6.765 4.71012 6.905 4.38012 6.905 3.99512C6.905 3.61012 6.765 3.28012 6.49 3.00512C6.215 2.73012 5.885 2.59012 5.5 2.59012C5.115 2.59012 4.785 2.73012 4.51 3.00512C4.235 3.28012 4.095 3.61012 4.095 3.99512C4.095 4.38012 4.235 4.71012 4.51 4.98512C4.785 5.26012 5.115 5.40012 5.5 5.40012ZM9.875 7.75012H14.875L12.375 3.75012L9.875 7.75012ZM12.375 14.2501L14.875 10.2501H9.875L12.375 14.2501ZM1.5 18.0001C1.1 18.0001 0.75 17.8501 0.45 17.5501C0.15 17.2501 0 16.9001 0 16.5001V1.50012C0 1.11512 0.15 0.770117 0.45 0.460117C0.75 0.150117 1.1 -0.00488281 1.5 -0.00488281H16.5C16.885 -0.00488281 17.23 0.150117 17.54 0.460117C17.85 0.770117 18.005 1.11512 18.005 1.50012V16.5001C18.005 16.9001 17.85 17.2501 17.54 17.5501C17.23 17.8501 16.885 18.0001 16.5 18.0001H1.5ZM1.5 16.5001H16.5V1.50012H1.5V16.5001Z" fill="white"/>
</g>
<path d="M1.64575 16.325L8.97913 9.00614L16.3125 1.68726" stroke="white" stroke-width="2" stroke-linecap="round" stroke-linejoin="round"/>
<defs>
<clipPath id="clip0_1391_3172">
<rect width="18" height="18" fill="white"/>
</clipPath>
</defs>
</svg>
