<svg width="16" height="15" viewBox="0 0 16 15" fill="none" xmlns="http://www.w3.org/2000/svg">
<g clip-path="url(#clip0_395_2444)">
<path d="M3.55556 11.913H6.22222V8.59301H7.11111V6.44475C7.11111 6.0151 6.93778 5.64795 6.58667 5.33938C6.23556 5.03081 5.81778 4.87848 5.32889 4.87848H4.44C3.95111 4.87848 3.53333 5.03081 3.18222 5.33938C2.83556 5.64404 2.65778 6.0151 2.65778 6.44475V8.59301H3.54667V11.913H3.55556ZM4.88889 4.21838C5.23111 4.21838 5.52444 4.10901 5.76889 3.89419C6.01333 3.67936 6.13778 3.42157 6.13778 3.12081C6.13778 2.82006 6.01333 2.56227 5.76889 2.34744C5.52444 2.13262 5.23111 2.02325 4.88889 2.02325C4.54667 2.02325 4.25333 2.13262 4.00889 2.34744C3.76444 2.56227 3.64 2.82006 3.64 3.12081C3.64 3.42157 3.76444 3.67936 4.00889 3.89419C4.25333 4.10901 4.54667 4.21838 4.88889 4.21838ZM8.77778 6.05416H13.2222L11 2.92942L8.77778 6.05416ZM11 11.1319L13.2222 8.00712H8.77778L11 11.1319ZM1.33333 14.0613C0.977778 14.0613 0.666667 13.9441 0.4 13.7098C0.133333 13.4754 0 13.202 0 12.8895V1.17176C0 0.871005 0.133333 0.601496 0.4 0.359329C0.666667 0.117162 0.977778 -0.00392151 1.33333 -0.00392151H14.6667C15.0089 -0.00392151 15.3156 0.117162 15.5911 0.359329C15.8667 0.601496 16.0044 0.871005 16.0044 1.17176V12.8895C16.0044 13.202 15.8667 13.4754 15.5911 13.7098C15.3156 13.9441 15.0089 14.0613 14.6667 14.0613H1.33333ZM1.33333 12.8895H14.6667V1.17176H1.33333V12.8895Z" fill="white"/>
</g>
<defs>
<clipPath id="clip0_395_2444">
<rect width="16" height="14.0613" fill="white"/>
</clipPath>
</defs>
</svg>
