<svg width="26" height="26" viewBox="0 0 26 26" fill="none" xmlns="http://www.w3.org/2000/svg">
<path d="M12.1968 26.3091C11.8062 26.3091 11.4684 26.1992 11.1836 25.9795C10.9069 25.7598 10.7238 25.4546 10.6343 25.064L10.0361 22.5371C9.84896 22.472 9.66178 22.4028 9.47461 22.3296C9.29557 22.2563 9.12467 22.1831 8.96191 22.1099L6.76465 23.4648C6.43913 23.6683 6.09733 23.7537 5.73926 23.7212C5.38118 23.6886 5.0638 23.534 4.78711 23.2573L3.22461 21.707C2.95605 21.4303 2.80143 21.1089 2.76074 20.7427C2.72819 20.3683 2.82178 20.0184 3.0415 19.6929L4.37207 17.5078C4.29883 17.3369 4.22559 17.166 4.15234 16.9951C4.08724 16.8242 4.0262 16.6493 3.96924 16.4702L1.43018 15.8721C1.03955 15.7907 0.734375 15.6117 0.514648 15.335C0.294922 15.0501 0.185059 14.7083 0.185059 14.3096V12.1245C0.185059 11.742 0.294922 11.4124 0.514648 11.1357C0.734375 10.8509 1.03955 10.6637 1.43018 10.5742L3.94482 9.97607C4.00179 9.77262 4.06689 9.58545 4.14014 9.41455C4.22152 9.24365 4.29476 9.08089 4.35986 8.92627L3.01709 6.69238C2.79736 6.35872 2.70378 6.01286 2.73633 5.65479C2.76888 5.29671 2.92757 4.9834 3.2124 4.71484L4.78711 3.15234C5.07194 2.89193 5.38118 2.74137 5.71484 2.70068C6.0485 2.65999 6.38216 2.72917 6.71582 2.9082L8.94971 4.2998C9.11247 4.21842 9.28743 4.14111 9.47461 4.06787C9.66178 3.98649 9.84896 3.91325 10.0361 3.84814L10.6343 1.30908C10.7238 0.926595 10.9069 0.625488 11.1836 0.405762C11.4684 0.177897 11.8062 0.0639648 12.1968 0.0639648H14.4307C14.8213 0.0639648 15.1549 0.177897 15.4316 0.405762C15.7165 0.625488 15.8996 0.926595 15.981 1.30908L16.5913 3.87256C16.7866 3.93766 16.9738 4.00684 17.1528 4.08008C17.3319 4.15332 17.4987 4.23063 17.6533 4.31201L19.9238 2.9082C20.2493 2.72917 20.5789 2.66406 20.9126 2.71289C21.2463 2.75358 21.5514 2.896 21.8281 3.14014L23.415 4.71484C23.6999 4.9834 23.8545 5.29671 23.8789 5.65479C23.9115 6.01286 23.826 6.35872 23.6226 6.69238L22.2676 8.92627C22.3327 9.08089 22.4019 9.24365 22.4751 9.41455C22.5483 9.58545 22.6175 9.77262 22.6826 9.97607L25.2095 10.5742C25.592 10.6637 25.8931 10.8509 26.1128 11.1357C26.3325 11.4124 26.4424 11.742 26.4424 12.1245V14.3096C26.4424 14.7083 26.3325 15.0501 26.1128 15.335C25.8931 15.6117 25.592 15.7907 25.2095 15.8721L22.6582 16.4702C22.6012 16.6493 22.5361 16.8242 22.4629 16.9951C22.3978 17.166 22.3245 17.3369 22.2432 17.5078L23.5859 19.6929C23.8057 20.0184 23.8993 20.3683 23.8667 20.7427C23.8341 21.1089 23.6795 21.4303 23.4028 21.707L21.8403 23.2573C21.5636 23.534 21.2463 23.6886 20.8882 23.7212C20.5301 23.7537 20.1883 23.6683 19.8628 23.4648L17.6533 22.1099C17.4906 22.1831 17.3197 22.2563 17.1406 22.3296C16.9616 22.4028 16.7785 22.472 16.5913 22.5371L15.981 25.064C15.8996 25.4546 15.7165 25.7598 15.4316 25.9795C15.1549 26.1992 14.8213 26.3091 14.4307 26.3091H12.1968ZM13.3198 17.4346C14.0929 17.4346 14.8009 17.2433 15.4438 16.8608C16.0868 16.4784 16.5994 15.9657 16.9819 15.3228C17.3644 14.6717 17.5557 13.9556 17.5557 13.1743C17.5557 12.4012 17.3644 11.6973 16.9819 11.0625C16.5994 10.4196 16.0868 9.9069 15.4438 9.52441C14.8009 9.14193 14.0929 8.95068 13.3198 8.95068C12.5386 8.95068 11.8265 9.14193 11.1836 9.52441C10.5488 9.9069 10.0361 10.4196 9.64551 11.0625C9.26302 11.6973 9.07178 12.4012 9.07178 13.1743C9.07178 13.9556 9.26302 14.6717 9.64551 15.3228C10.028 15.9657 10.5407 16.4784 11.1836 16.8608C11.8265 17.2433 12.5386 17.4346 13.3198 17.4346Z" fill="#BABABA"/>
</svg>
