<svg width="15" height="14" viewBox="0 0 15 14" fill="none" xmlns="http://www.w3.org/2000/svg">
<path d="M0.903709 12.7161V3.95313C0.903709 3.73611 0.949282 3.54948 1.04043 3.39323C1.13591 3.23264 1.28131 3.09809 1.47663 2.98958L4.56256 1.21875C4.61899 1.18403 4.67975 1.15148 4.74485 1.12109C4.80996 1.08637 4.87072 1.05599 4.92715 1.02995V11.8177L2.19277 13.2956C1.98878 13.4084 1.80649 13.4648 1.6459 13.4648C1.41152 13.4648 1.22923 13.3997 1.09902 13.2695C0.968813 13.1393 0.903709 12.9549 0.903709 12.7161ZM5.81907 11.694V0.919271C5.87984 0.932292 5.9406 0.951823 6.00137 0.977865C6.06647 1.00391 6.12723 1.03429 6.18366 1.06901L9.3998 3.03516V13.6602C9.35206 13.6471 9.30215 13.6298 9.25006 13.6081C9.20232 13.5864 9.15241 13.5625 9.10032 13.5365L5.81907 11.694ZM10.2852 13.6406V2.91146L13.1563 1.31641C13.3603 1.20356 13.5426 1.14714 13.7032 1.14714C13.9376 1.14714 14.1199 1.21224 14.2501 1.34245C14.3803 1.47266 14.4454 1.65712 14.4454 1.89583V10.6654C14.4454 10.8824 14.3976 11.0712 14.3021 11.2318C14.211 11.388 14.0678 11.5204 13.8725 11.6289L10.4805 13.556C10.4501 13.5734 10.4176 13.5885 10.3829 13.6016C10.3525 13.6189 10.3199 13.6319 10.2852 13.6406Z" fill="black"/>
</svg>
