<svg width="17" height="23" viewBox="0 0 17 23" fill="none" xmlns="http://www.w3.org/2000/svg">
<path d="M0.880859 11.0508V9.15625C0.880859 8.86979 0.981771 8.62891 1.18359 8.43359C1.39193 8.23177 1.63932 8.13086 1.92578 8.13086C2.21875 8.13086 2.4694 8.23177 2.67773 8.43359C2.88607 8.62891 2.99023 8.86979 2.99023 9.15625V10.9824C2.99023 12.0892 3.22786 13.056 3.70312 13.8828C4.1849 14.7096 4.84896 15.3509 5.69531 15.8066C6.54167 16.2559 7.51823 16.4805 8.625 16.4805C9.72526 16.4805 10.6986 16.2559 11.5449 15.8066C12.3913 15.3509 13.0521 14.7096 13.5273 13.8828C14.0026 13.056 14.2402 12.0892 14.2402 10.9824V9.15625C14.2402 8.86979 14.3444 8.62891 14.5527 8.43359C14.7611 8.23177 15.0117 8.13086 15.3047 8.13086C15.5977 8.13086 15.8451 8.23177 16.0469 8.43359C16.2552 8.62891 16.3594 8.86979 16.3594 9.15625V11.0508C16.3594 12.4375 16.0729 13.6615 15.5 14.7227C14.9271 15.7839 14.1328 16.6335 13.1172 17.2715C12.1081 17.9095 10.946 18.2936 9.63086 18.4238V20.2305H13.1855C13.4785 20.2305 13.7292 20.3314 13.9375 20.5332C14.1523 20.7415 14.2598 20.9922 14.2598 21.2852C14.2598 21.5651 14.1523 21.806 13.9375 22.0078C13.7292 22.2161 13.4785 22.3203 13.1855 22.3203H4.05469C3.76172 22.3203 3.50781 22.2161 3.29297 22.0078C3.08464 21.806 2.98047 21.5651 2.98047 21.2852C2.98047 20.9922 3.08464 20.7415 3.29297 20.5332C3.50781 20.3314 3.76172 20.2305 4.05469 20.2305H7.60938V18.4238C6.28776 18.2936 5.1224 17.9095 4.11328 17.2715C3.10417 16.6335 2.31315 15.7839 1.74023 14.7227C1.16732 13.6615 0.880859 12.4375 0.880859 11.0508ZM8.625 14.5176C7.95443 14.5176 7.34896 14.3613 6.80859 14.0488C6.27474 13.7363 5.84831 13.3001 5.5293 12.7402C5.2168 12.1803 5.06055 11.5293 5.06055 10.7871V4.18555C5.06055 3.44336 5.2168 2.79232 5.5293 2.23242C5.84831 1.67253 6.27474 1.23633 6.80859 0.923828C7.34896 0.611328 7.95443 0.455078 8.625 0.455078C9.28906 0.455078 9.88802 0.611328 10.4219 0.923828C10.9622 1.23633 11.3887 1.67253 11.7012 2.23242C12.0137 2.79232 12.1699 3.44336 12.1699 4.18555V10.7871C12.1699 11.5293 12.0137 12.1803 11.7012 12.7402C11.3887 13.3001 10.9622 13.7363 10.4219 14.0488C9.88802 14.3613 9.28906 14.5176 8.625 14.5176Z" fill="#316BFF"/>
</svg>
