<svg width="53" height="48" viewBox="0 0 53 48" fill="none" xmlns="http://www.w3.org/2000/svg">
<path d="M8.10938 47.4508C6.66081 47.4508 5.39941 47.1253 4.3252 46.4742C3.26725 45.8395 2.44531 44.9768 1.85938 43.8864C1.27344 42.8121 0.980469 41.624 0.980469 40.3219C0.980469 39.0686 1.30599 37.8724 1.95703 36.733L20.8291 3.82288C21.4964 2.63472 22.3753 1.73954 23.4658 1.13733C24.5726 0.535116 25.7363 0.234009 26.957 0.234009C28.1615 0.234009 29.3089 0.535116 30.3994 1.13733C31.4899 1.73954 32.377 2.63472 33.0605 3.82288L51.9326 36.733C52.2581 37.3027 52.5023 37.8968 52.665 38.5153C52.8278 39.1175 52.9092 39.7197 52.9092 40.3219C52.9092 41.624 52.6162 42.8121 52.0303 43.8864C51.4443 44.9768 50.6143 45.8395 49.54 46.4742C48.4821 47.1253 47.2288 47.4508 45.7803 47.4508H8.10938ZM26.9814 30.3854C28.5439 30.3854 29.3577 29.5716 29.4229 27.944L29.8135 16.3961C29.846 15.5986 29.5856 14.9394 29.0322 14.4186C28.4951 13.8815 27.8034 13.6129 26.957 13.6129C26.0944 13.6129 25.3945 13.8733 24.8574 14.3942C24.3203 14.915 24.068 15.5823 24.1006 16.3961L24.4668 27.944C24.5319 29.5716 25.3701 30.3854 26.9814 30.3854ZM26.9814 38.9791C27.8604 38.9791 28.609 38.7106 29.2275 38.1735C29.846 37.6201 30.1553 36.9121 30.1553 36.0494C30.1553 35.2031 29.846 34.5032 29.2275 33.9498C28.609 33.3964 27.8604 33.1198 26.9814 33.1198C26.0863 33.1198 25.3294 33.3964 24.7109 33.9498C24.0924 34.5032 23.7832 35.2031 23.7832 36.0494C23.7832 36.9121 24.0924 37.6201 24.7109 38.1735C25.3457 38.7106 26.1025 38.9791 26.9814 38.9791Z" fill="#96A1B2"/>
</svg>
