<svg width="25" height="27" viewBox="0 0 25 27" fill="none" xmlns="http://www.w3.org/2000/svg">
<path d="M2.66309 21.1821C2.00391 21.1821 1.479 21.0112 1.08838 20.6694C0.705892 20.3276 0.514648 19.876 0.514648 19.3145C0.514648 18.8669 0.624512 18.4437 0.844238 18.0449C1.0721 17.6462 1.35693 17.2677 1.69873 16.9097C2.04867 16.5435 2.40674 16.1854 2.77295 15.8354C3.07406 15.5588 3.30192 15.1925 3.45654 14.7368C3.6193 14.2811 3.74137 13.7765 3.82275 13.2231C3.91227 12.6616 3.98958 12.092 4.05469 11.5142C4.12793 10.0656 4.33545 8.76351 4.67725 7.60791C5.02718 6.45231 5.53581 5.47575 6.20312 4.67822C6.87044 3.8807 7.72493 3.29476 8.7666 2.92041C9.02702 2.11475 9.48275 1.44336 10.1338 0.90625C10.7848 0.361003 11.5579 0.0883789 12.4531 0.0883789C13.3646 0.0883789 14.1458 0.361003 14.7969 0.90625C15.4479 1.44336 15.9036 2.11475 16.1641 2.92041C17.2057 3.29476 18.0562 3.8807 18.7153 4.67822C19.3826 5.47575 19.8872 6.45231 20.229 7.60791C20.5789 8.76351 20.7946 10.0656 20.876 11.5142C20.9411 12.092 21.0143 12.6616 21.0957 13.2231C21.1852 13.7765 21.3073 14.2811 21.4619 14.7368C21.6247 15.1925 21.8566 15.5588 22.1577 15.8354C22.5239 16.1854 22.8779 16.5435 23.2197 16.9097C23.5697 17.2677 23.8545 17.6462 24.0742 18.0449C24.3021 18.4437 24.416 18.8669 24.416 19.3145C24.416 19.876 24.2207 20.3276 23.8301 20.6694C23.4476 21.0112 22.9268 21.1821 22.2676 21.1821H2.66309ZM12.4531 26.3091C11.7207 26.3091 11.0615 26.1504 10.4756 25.833C9.89779 25.5238 9.42985 25.1087 9.07178 24.5879C8.72184 24.0752 8.52246 23.5177 8.47363 22.9155H16.457C16.4001 23.5177 16.1966 24.0752 15.8467 24.5879C15.4967 25.1087 15.0288 25.5238 14.4429 25.833C13.8569 26.1504 13.1937 26.3091 12.4531 26.3091Z" fill="#BABABA"/>
</svg>
