<svg width="14" height="14" viewBox="0 0 14 14" fill="none" xmlns="http://www.w3.org/2000/svg">
<path fill="current" d="M0.164632 5.97388C0.164632 5.23603 0.303521 4.54159 0.581299 3.89054C0.859077 3.2395 1.24536 2.66876 1.74015 2.1783C2.23494 1.68351 2.80569 1.29723 3.45239 1.01945C4.10343 0.741672 4.80005 0.602783 5.54224 0.602783C6.28442 0.602783 6.97887 0.741672 7.62557 1.01945C8.27661 1.29723 8.84953 1.68351 9.34432 2.1783C9.83911 2.66876 10.2254 3.2395 10.5032 3.89054C10.781 4.54159 10.9198 5.23603 10.9198 5.97388C10.9198 6.52943 10.8374 7.05895 10.6724 7.56242C10.5119 8.06589 10.2862 8.52813 9.99536 8.94914L12.8014 11.7681C12.9055 11.8767 12.9836 11.996 13.0357 12.1262C13.0921 12.2608 13.1204 12.404 13.1204 12.5559C13.1204 12.7642 13.0726 12.953 12.9771 13.1223C12.8816 13.2916 12.7514 13.424 12.5865 13.5194C12.4216 13.6193 12.2306 13.6692 12.0136 13.6692C11.866 13.6692 11.7228 13.6431 11.5839 13.5911C11.445 13.539 11.3213 13.4587 11.2128 13.3502L8.38078 10.5181C7.97279 10.7786 7.52791 10.9847 7.04614 11.1366C6.56871 11.2842 6.06741 11.358 5.54224 11.358C4.80005 11.358 4.10343 11.2191 3.45239 10.9413C2.80569 10.6635 2.23494 10.2773 1.74015 9.78247C1.24536 9.28768 0.859077 8.71476 0.581299 8.06372C0.303521 7.41268 0.164632 6.71606 0.164632 5.97388ZM1.74666 5.97388C1.74666 6.49905 1.84432 6.99167 2.03963 7.45174C2.23928 7.90747 2.51272 8.30895 2.85994 8.65617C3.20717 9.00339 3.60864 9.27683 4.06437 9.47648C4.52444 9.67179 5.01706 9.76945 5.54224 9.76945C6.06741 9.76945 6.55786 9.67179 7.01359 9.47648C7.47366 9.27683 7.87731 9.00339 8.22453 8.65617C8.57175 8.30895 8.84302 7.90747 9.03833 7.45174C9.23798 6.99167 9.33781 6.49905 9.33781 5.97388C9.33781 5.45304 9.23798 4.96476 9.03833 4.50903C8.84302 4.04896 8.57175 3.64532 8.22453 3.2981C7.87731 2.94653 7.47366 2.6731 7.01359 2.47778C6.55786 2.28247 6.06741 2.18481 5.54224 2.18481C5.01706 2.18481 4.52444 2.28247 4.06437 2.47778C3.60864 2.6731 3.20717 2.94653 2.85994 3.2981C2.51272 3.64532 2.23928 4.04896 2.03963 4.50903C1.84432 4.96476 1.74666 5.45304 1.74666 5.97388Z"/>
</svg>
