<svg width="20" height="22" viewBox="0 0 20 22" fill="none" xmlns="http://www.w3.org/2000/svg">
<path d="M1.39844 13.9277C1.14453 13.9277 0.929688 13.8366 0.753906 13.6543C0.578125 13.472 0.490234 13.2539 0.490234 13V8.9082C0.490234 8.6543 0.578125 8.4362 0.753906 8.25391C0.929688 8.0651 1.14453 7.9707 1.39844 7.9707C1.66536 7.9707 1.88672 8.0651 2.0625 8.25391C2.24479 8.4362 2.33594 8.6543 2.33594 8.9082V13C2.33594 13.2539 2.24479 13.472 2.0625 13.6543C1.88672 13.8366 1.66536 13.9277 1.39844 13.9277ZM4.82617 17.8242C4.56576 17.8242 4.34766 17.7363 4.17188 17.5605C3.99609 17.3783 3.9082 17.1569 3.9082 16.8965V5.01172C3.9082 4.7513 3.99609 4.52995 4.17188 4.34766C4.34766 4.16536 4.56576 4.07422 4.82617 4.07422C5.08659 4.07422 5.30469 4.16536 5.48047 4.34766C5.66276 4.52995 5.75391 4.7513 5.75391 5.01172V16.8965C5.75391 17.1569 5.66276 17.3783 5.48047 17.5605C5.30469 17.7363 5.08659 17.8242 4.82617 17.8242ZM8.23438 21.5156C7.98047 21.5156 7.76562 21.4245 7.58984 21.2422C7.41406 21.0664 7.32617 20.8483 7.32617 20.5879V1.32031C7.32617 1.0599 7.41406 0.841797 7.58984 0.666016C7.76562 0.483724 7.98047 0.392578 8.23438 0.392578C8.5013 0.392578 8.72266 0.483724 8.89844 0.666016C9.08073 0.841797 9.17188 1.0599 9.17188 1.32031V20.5879C9.17188 20.8483 9.08073 21.0664 8.89844 21.2422C8.72266 21.4245 8.5013 21.5156 8.23438 21.5156ZM11.6621 16.4961C11.4017 16.4961 11.1836 16.4082 11.0078 16.2324C10.832 16.0566 10.7441 15.8385 10.7441 15.5781V6.33008C10.7441 6.06966 10.832 5.85156 11.0078 5.67578C11.1836 5.49349 11.4017 5.40234 11.6621 5.40234C11.9225 5.40234 12.1406 5.49349 12.3164 5.67578C12.4987 5.85156 12.5898 6.06966 12.5898 6.33008V15.5781C12.5898 15.8385 12.4987 16.0566 12.3164 16.2324C12.1406 16.4082 11.9225 16.4961 11.6621 16.4961ZM15.0898 19.3672C14.8229 19.3672 14.6016 19.276 14.4258 19.0938C14.25 18.918 14.1621 18.7031 14.1621 18.4492V3.45898C14.1621 3.20508 14.25 2.98698 14.4258 2.80469C14.6016 2.6224 14.8229 2.53125 15.0898 2.53125C15.3438 2.53125 15.5586 2.6224 15.7344 2.80469C15.9167 2.98698 16.0078 3.20508 16.0078 3.45898V18.4492C16.0078 18.7031 15.9167 18.918 15.7344 19.0938C15.5586 19.276 15.3438 19.3672 15.0898 19.3672ZM18.498 14.6406C18.2376 14.6406 18.0195 14.5495 17.8438 14.3672C17.668 14.1849 17.5801 13.9668 17.5801 13.7129V8.18555C17.5801 7.93164 17.668 7.71354 17.8438 7.53125C18.0195 7.34896 18.2376 7.25781 18.498 7.25781C18.7585 7.25781 18.9798 7.34896 19.1621 7.53125C19.3444 7.71354 19.4355 7.93164 19.4355 8.18555V13.7129C19.4355 13.9668 19.3444 14.1849 19.1621 14.3672C18.9798 14.5495 18.7585 14.6406 18.498 14.6406Z" fill="white"/>
</svg>
