<svg width="25" height="27" viewBox="0 0 25 27" fill="none" xmlns="http://www.w3.org/2000/svg">
<path d="M2.66309 21.1821C2.00391 21.1821 1.479 21.0112 1.08838 20.6694C0.705892 20.3276 0.514648 19.876 0.514648 19.3145C0.514648 18.8669 0.624512 18.4437 0.844238 18.0449C1.0721 17.6462 1.35693 17.2677 1.69873 16.9097C2.04867 16.5435 2.40674 16.1854 2.77295 15.8354C3.07406 15.5588 3.30192 15.1925 3.45654 14.7368C3.6193 14.2811 3.74137 13.7765 3.82275 13.2231C3.91227 12.6616 3.98958 12.092 4.05469 11.5142C4.12793 10.0656 4.33545 8.76351 4.67725 7.60791C5.02718 6.45231 5.53581 5.47575 6.20312 4.67822C6.87044 3.8807 7.72494 3.29476 8.7666 2.92041C9.02702 2.11475 9.48275 1.44336 10.1338 0.90625C10.7848 0.361003 11.5579 0.0883789 12.4531 0.0883789C13.1123 0.0883789 13.7023 0.234863 14.2231 0.527832C13.743 1.04867 13.3605 1.65495 13.0757 2.34668C12.799 3.03027 12.6606 3.75456 12.6606 4.51953C12.6606 5.60189 12.9292 6.59473 13.4663 7.49805C14.0116 8.40137 14.7318 9.12565 15.627 9.6709C16.5303 10.208 17.5272 10.4766 18.6177 10.4766C19.0083 10.4766 19.3827 10.4399 19.7407 10.3667C20.1069 10.2853 20.4609 10.1714 20.8027 10.0249C20.8434 10.3911 20.88 10.7655 20.9126 11.1479C20.9533 11.5304 20.9858 11.917 21.0103 12.3076C21.0509 12.7552 21.112 13.2028 21.1934 13.6504C21.2747 14.098 21.3927 14.5171 21.5474 14.9077C21.702 15.2902 21.9054 15.5994 22.1577 15.8354C22.5239 16.1854 22.8779 16.5435 23.2197 16.9097C23.5697 17.2677 23.8545 17.6462 24.0742 18.0449C24.3021 18.4437 24.416 18.8669 24.416 19.3145C24.416 19.876 24.2207 20.3276 23.8301 20.6694C23.4476 21.0112 22.9268 21.1821 22.2676 21.1821H2.66309ZM12.4653 26.3091C11.7329 26.3091 11.0737 26.1504 10.4878 25.833C9.90999 25.5238 9.44206 25.1087 9.08398 24.5879C8.72591 24.0752 8.52246 23.5177 8.47363 22.9155H16.4692C16.4123 23.5177 16.2088 24.0752 15.8589 24.5879C15.509 25.1087 15.041 25.5238 14.4551 25.833C13.8691 26.1504 13.2059 26.3091 12.4653 26.3091ZM18.6299 8.71875C17.8568 8.71875 17.1528 8.53158 16.5181 8.15723C15.8833 7.77474 15.3747 7.26611 14.9922 6.63135C14.6178 5.98844 14.4307 5.28451 14.4307 4.51953C14.4307 3.75456 14.6178 3.05469 14.9922 2.41992C15.3747 1.77702 15.8833 1.26839 16.5181 0.894043C17.1528 0.511556 17.8568 0.320312 18.6299 0.320312C19.3949 0.320312 20.0947 0.511556 20.7295 0.894043C21.3724 1.26839 21.881 1.77702 22.2554 2.41992C22.6379 3.05469 22.8291 3.75456 22.8291 4.51953C22.8291 5.28451 22.6379 5.98844 22.2554 6.63135C21.881 7.26611 21.3724 7.77474 20.7295 8.15723C20.0947 8.53158 19.3949 8.71875 18.6299 8.71875Z" fill="#767676"/>
</svg>
