<svg width="12" height="16" viewBox="0 0 12 16" fill="none" xmlns="http://www.w3.org/2000/svg">
<path d="M0.920573 7.70052V6.4375C0.920573 6.24653 0.987847 6.08594 1.1224 5.95573C1.26128 5.82118 1.42622 5.75391 1.61719 5.75391C1.8125 5.75391 1.9796 5.82118 2.11849 5.95573C2.25738 6.08594 2.32682 6.24653 2.32682 6.4375V7.65495C2.32682 8.3928 2.48524 9.03733 2.80208 9.58854C3.12326 10.1398 3.56597 10.5673 4.13021 10.8711C4.69444 11.1706 5.34549 11.3203 6.08333 11.3203C6.81684 11.3203 7.46571 11.1706 8.02995 10.8711C8.59418 10.5673 9.03472 10.1398 9.35156 9.58854C9.6684 9.03733 9.82682 8.3928 9.82682 7.65495V6.4375C9.82682 6.24653 9.89627 6.08594 10.0352 5.95573C10.174 5.82118 10.3411 5.75391 10.5365 5.75391C10.7318 5.75391 10.8967 5.82118 11.0312 5.95573C11.1701 6.08594 11.2396 6.24653 11.2396 6.4375V7.70052C11.2396 8.625 11.0486 9.44097 10.6667 10.1484C10.2847 10.8559 9.75521 11.4223 9.07812 11.8477C8.40538 12.273 7.63064 12.5291 6.75391 12.6159V13.8203H9.1237C9.31901 13.8203 9.48611 13.8876 9.625 14.0221C9.76823 14.161 9.83984 14.3281 9.83984 14.5234C9.83984 14.7101 9.76823 14.8707 9.625 15.0052C9.48611 15.1441 9.31901 15.2135 9.1237 15.2135H3.03646C2.84115 15.2135 2.67187 15.1441 2.52865 15.0052C2.38976 14.8707 2.32031 14.7101 2.32031 14.5234C2.32031 14.3281 2.38976 14.161 2.52865 14.0221C2.67187 13.8876 2.84115 13.8203 3.03646 13.8203H5.40625V12.6159C4.52517 12.5291 3.74826 12.273 3.07552 11.8477C2.40278 11.4223 1.87543 10.8559 1.49349 10.1484C1.11155 9.44097 0.920573 8.625 0.920573 7.70052ZM6.08333 10.0117C5.63628 10.0117 5.23264 9.90755 4.8724 9.69922C4.51649 9.49089 4.2322 9.20009 4.01953 8.82682C3.8112 8.45356 3.70703 8.01953 3.70703 7.52474V3.1237C3.70703 2.62891 3.8112 2.19488 4.01953 1.82161C4.2322 1.44835 4.51649 1.15755 4.8724 0.949219C5.23264 0.740886 5.63628 0.636719 6.08333 0.636719C6.52604 0.636719 6.92535 0.740886 7.28125 0.949219C7.64149 1.15755 7.92578 1.44835 8.13411 1.82161C8.34245 2.19488 8.44661 2.62891 8.44661 3.1237V7.52474C8.44661 8.01953 8.34245 8.45356 8.13411 8.82682C7.92578 9.20009 7.64149 9.49089 7.28125 9.69922C6.92535 9.90755 6.52604 10.0117 6.08333 10.0117Z" fill="#434343"/>
</svg>
