<svg width="15" height="17" viewBox="0 0 15 17" fill="none" xmlns="http://www.w3.org/2000/svg">
<path d="M1.79785 13.5093C1.40234 13.5093 1.0874 13.4067 0.853027 13.2017C0.623535 12.9966 0.508789 12.7256 0.508789 12.3887C0.508789 12.1201 0.574707 11.8662 0.706543 11.627C0.843262 11.3877 1.01416 11.1606 1.21924 10.9458C1.4292 10.7261 1.64404 10.5112 1.86377 10.3013C2.04443 10.1353 2.18115 9.91553 2.27393 9.64209C2.37158 9.36865 2.44482 9.06592 2.49365 8.73389C2.54736 8.39697 2.59375 8.05518 2.63281 7.7085C2.67676 6.83936 2.80127 6.05811 3.00635 5.36475C3.21631 4.67139 3.52148 4.08545 3.92188 3.60693C4.32227 3.12842 4.83496 2.77686 5.45996 2.55225C5.61621 2.06885 5.88965 1.66602 6.28027 1.34375C6.6709 1.0166 7.13477 0.853027 7.67188 0.853027C8.21875 0.853027 8.6875 1.0166 9.07812 1.34375C9.46875 1.66602 9.74219 2.06885 9.89844 2.55225C10.5234 2.77686 11.0337 3.12842 11.4292 3.60693C11.8296 4.08545 12.1323 4.67139 12.3374 5.36475C12.5474 6.05811 12.6768 6.83936 12.7256 7.7085C12.7646 8.05518 12.8086 8.39697 12.8574 8.73389C12.9111 9.06592 12.9844 9.36865 13.0771 9.64209C13.1748 9.91553 13.314 10.1353 13.4946 10.3013C13.7144 10.5112 13.9268 10.7261 14.1318 10.9458C14.3418 11.1606 14.5127 11.3877 14.6445 11.627C14.7812 11.8662 14.8496 12.1201 14.8496 12.3887C14.8496 12.7256 14.7324 12.9966 14.498 13.2017C14.2686 13.4067 13.9561 13.5093 13.5605 13.5093H1.79785ZM7.67188 16.5854C7.23242 16.5854 6.83691 16.4902 6.48535 16.2998C6.13867 16.1143 5.85791 15.8652 5.64307 15.5527C5.43311 15.2451 5.31348 14.9106 5.28418 14.5493H10.0742C10.04 14.9106 9.91797 15.2451 9.70801 15.5527C9.49805 15.8652 9.21729 16.1143 8.86572 16.2998C8.51416 16.4902 8.11621 16.5854 7.67188 16.5854Z" fill="white"/>
</svg>
