<svg width="500" height="500" viewBox="0 0 500 500" fill="none" xmlns="http://www.w3.org/2000/svg">
<rect width="500" height="500" fill="white"/>
<g clip-path="url(#clip0_1855_2826)">
<path opacity="0.5" d="M139 250.08V345.16C139 362.833 153.327 377.16 171 377.16C188.673 377.16 203 362.833 203 345.16V250.08C203 232.407 188.673 218.08 171 218.08C153.327 218.08 139 232.407 139 250.08Z" fill="#316BFF"/>
<path opacity="0.5" d="M149.207 176.635L244.441 271.868C255.547 282.974 273.554 282.974 284.661 271.868L286.528 270.001C297.634 258.894 297.634 240.887 286.528 229.781L191.294 134.548C180.188 123.441 162.181 123.441 151.074 134.548L149.207 136.414C138.101 147.521 138.101 165.528 149.207 176.635Z" fill="#316BFF"/>
<path d="M171 377.68C188.673 377.68 203 363.353 203 345.68C203 328.007 188.673 313.68 171 313.68C153.327 313.68 139 328.007 139 345.68C139 363.353 153.327 377.68 171 377.68Z" fill="#316BFF"/>
<path d="M266.48 218.08H171C153.327 218.08 139 232.407 139 250.08C139 267.753 153.327 282.08 171 282.08H266.48C284.153 282.08 298.48 267.753 298.48 250.08C298.48 232.407 284.153 218.08 266.48 218.08Z" fill="#316BFF"/>
<path d="M340.32 123H171C153.327 123 139 137.327 139 155C139 172.673 153.327 187 171 187H340.32C357.993 187 372.32 172.673 372.32 155C372.32 137.327 357.993 123 340.32 123Z" fill="#316BFF"/>
</g>
<defs>
<clipPath id="clip0_1855_2826">
<rect width="233.32" height="254.68" fill="white" transform="translate(139 123)"/>
</clipPath>
</defs>
</svg>
