<svg width="59" height="28" viewBox="0 0 59 28" fill="none" xmlns="http://www.w3.org/2000/svg">
<rect width="59" height="28" rx="14" fill="#BE4049"/>
<path d="M22.0557 7.87109V16.8945H20.5244V7.87109H22.0557ZM11.7744 13.9824C13.7773 13.2783 14.8027 11.5352 14.7959 9.75781V8.55469H16.3682V9.75781C16.3613 11.4805 17.373 13.1074 19.335 13.7637L18.5557 14.9668C17.1475 14.4746 16.1426 13.4902 15.5957 12.2256C15.0488 13.5791 14.0234 14.6592 12.5674 15.1855L11.7744 13.9824ZM13.8799 19.9707V16.0332H15.4111V18.7402H22.3975V19.9707H13.8799ZM35.1396 14.2559V15.4727H30.3682V17.6055H28.8643V15.4727H23.8467V14.2559H35.1396ZM25.2139 19.9707V16.5664H26.7178V18.7402H33.8955V19.9707H25.2139ZM25.3232 13.2852V8.25391H26.8271V9.64844H32.1592V8.25391H33.6631V13.2852H25.3232ZM26.8271 12.082H32.1592V10.7832H26.8271V12.082ZM45.7217 7.85742V10.8926H47.4307V12.1367H45.7217V15.0762H44.1904V7.85742H45.7217ZM36.4385 14.2969V8.73242H41.9756V9.96289H37.9424V13.0664C40.3076 13.0596 41.627 12.9844 43.083 12.6836L43.2334 13.9004C41.6338 14.2422 40.1777 14.2969 37.4365 14.2969H36.4385ZM37.5049 17.7422C37.5049 16.2109 39.1318 15.3086 41.6885 15.3086C44.2246 15.3086 45.8242 16.2109 45.8311 17.7422C45.8242 19.3008 44.2246 20.2031 41.6885 20.2031C39.1318 20.2031 37.5049 19.3008 37.5049 17.7422ZM39.0088 17.7422C39.002 18.542 39.9932 18.9863 41.6885 18.9863C43.3496 18.9863 44.3477 18.542 44.3545 17.7422C44.3477 16.9561 43.3496 16.5186 41.6885 16.5254C39.9932 16.5186 39.002 16.9561 39.0088 17.7422Z" fill="white"/>
</svg>
