<svg width="59" height="28" viewBox="0 0 59 28" fill="none" xmlns="http://www.w3.org/2000/svg">
<rect width="59" height="28" rx="14" fill="#82C9CB"/>
<path d="M16.0605 7.87109V15.0898H14.543V13.7227H11.6035V12.4922H14.543V11.166H11.7197C10.9404 13.1279 9.13574 14.502 6.44922 15.2539L5.83398 14.0508C8.72559 13.2715 10.2705 11.8018 10.5029 9.96289H6.49023V8.73242H12.1641C12.1641 9.16309 12.1299 9.57324 12.0615 9.96289H14.543V7.87109H16.0605ZM7.77539 17.6875C7.77539 16.1699 9.43652 15.2334 11.9727 15.2266C14.4746 15.2334 16.1426 16.1699 16.1426 17.6875C16.1426 19.2051 14.4746 20.1553 11.9727 20.1484C9.43652 20.1553 7.77539 19.2051 7.77539 17.6875ZM9.29297 17.6875C9.29297 18.501 10.3115 18.9453 11.9727 18.9453C13.6064 18.9453 14.6182 18.501 14.625 17.6875C14.6182 16.8604 13.6064 16.416 11.9727 16.416C10.3115 16.416 9.29297 16.8604 9.29297 17.6875ZM21.8164 8.71875C23.7783 8.71191 25.207 9.94922 25.2207 11.6992C25.207 13.4561 23.7783 14.6865 21.8164 14.6934C19.875 14.6865 18.4189 13.4561 18.4258 11.6992C18.4189 9.94922 19.875 8.71191 21.8164 8.71875ZM17.8652 16.4023C20.0938 16.4023 23.1768 16.375 25.8496 15.9922L25.9727 17.0996C23.2041 17.626 20.2373 17.6465 18.0566 17.6465L17.8652 16.4023ZM19.9297 11.6992C19.9229 12.7314 20.7363 13.3672 21.8164 13.3672C22.9102 13.3672 23.7236 12.7314 23.7305 11.6992C23.7236 10.6738 22.917 10.0312 21.8164 10.0312C20.7363 10.0312 19.9229 10.6738 19.9297 11.6992ZM26.5879 20.2305V7.85742H28.1055V20.2305H26.5879ZM41.1758 13.5312V14.7617H36.2812V15.8008C38.4893 15.9443 39.8018 16.71 39.8086 17.9883C39.8018 19.4102 38.1885 20.2031 35.5293 20.2031C32.8291 20.2031 31.2227 19.4102 31.2227 17.9883C31.2227 16.71 32.5352 15.9375 34.7773 15.7939V14.7617H29.9102V13.5312H41.1758ZM30.457 11.7676C32.7266 11.5557 34.21 10.6328 34.4629 9.62109H30.9355V8.4043H40.1641V9.62109H36.6025C36.8486 10.6396 38.3184 11.5557 40.6426 11.7676L40.1094 12.9707C37.8604 12.7383 36.1992 11.8428 35.5293 10.5918C34.8594 11.8428 33.2188 12.7383 30.9766 12.9707L30.457 11.7676ZM32.7676 17.9883C32.7607 18.6719 33.7314 19.0479 35.5293 19.041C37.2998 19.0479 38.2773 18.6719 38.291 17.9883C38.2773 17.3047 37.2998 16.9424 35.5293 16.9355C33.7314 16.9424 32.7607 17.3047 32.7676 17.9883ZM45.4824 8.56836C47.3828 8.55469 48.8047 9.77832 48.8184 11.5215C48.8047 13.2578 47.3828 14.4814 45.4824 14.4883C43.5752 14.4814 42.1396 13.2578 42.1465 11.5215C42.1396 9.77832 43.5752 8.55469 45.4824 8.56836ZM43.5547 17.8105C43.5547 16.2998 45.1816 15.4111 47.7383 15.4043C50.2744 15.4111 51.874 16.2998 51.8809 17.8105C51.874 19.3076 50.2744 20.2031 47.7383 20.2031C45.1816 20.2031 43.5547 19.3076 43.5547 17.8105ZM43.6367 11.5215C43.6299 12.5469 44.416 13.1963 45.4824 13.2031C46.5352 13.1963 47.3213 12.5469 47.3281 11.5215C47.3213 10.5029 46.5352 9.83301 45.4824 9.83984C44.416 9.83301 43.6299 10.5029 43.6367 11.5215ZM45.0723 17.8105C45.0723 18.5898 46.043 18.9863 47.7383 18.9863C49.4268 18.9863 50.377 18.5898 50.377 17.8105C50.377 17.0381 49.4268 16.6211 47.7383 16.6211C46.043 16.6211 45.0723 17.0381 45.0723 17.8105ZM50.2402 15.1172V7.85742H51.7578V10.7832H53.4805V12.0137H51.7578V15.1172H50.2402Z" fill="white"/>
</svg>
