<svg width="59" height="28" viewBox="0 0 59 28" fill="none" xmlns="http://www.w3.org/2000/svg">
<rect width="59" height="28" rx="14" fill="#F7D055"/>
<path d="M12.1504 8.88281C12.1436 10.4346 13.8867 12.0137 16.5254 12.3555L15.9238 13.5859C13.8252 13.2715 12.1572 12.2393 11.3506 10.8447C10.5439 12.2393 8.88281 13.2715 6.80469 13.5859L6.20312 12.3555C8.81445 12.0137 10.5508 10.4482 10.5508 8.88281V8.25391H12.1504V8.88281ZM5.71094 15.9102V14.6523H16.9766V15.9102H12.0684V20.2168H10.5645V15.9102H5.71094ZM28.1055 7.87109V16.7988H26.5742V7.87109H28.1055ZM18.0293 11.7676C18.0293 9.96973 19.4854 8.68457 21.3652 8.67773C23.2451 8.68457 24.6943 9.96973 24.6875 11.7676C24.6943 13.5928 23.2451 14.8711 21.3652 14.8711C19.4854 14.8711 18.0293 13.5928 18.0293 11.7676ZM19.5195 11.7676C19.5127 12.8613 20.3057 13.5449 21.3652 13.5449C22.3975 13.5449 23.1973 12.8613 23.1973 11.7676C23.1973 10.7012 22.3975 10.0039 21.3652 10.0039C20.3057 10.0039 19.5127 10.7012 19.5195 11.7676ZM19.9297 19.9707V15.8965H21.4609V18.7402H28.4473V19.9707H19.9297ZM41.1895 14.2559V15.4727H36.418V17.6055H34.9141V15.4727H29.8965V14.2559H41.1895ZM31.2637 19.9707V16.5664H32.7676V18.7402H39.9453V19.9707H31.2637ZM31.373 13.2852V8.25391H32.877V9.64844H38.209V8.25391H39.7129V13.2852H31.373ZM32.877 12.082H38.209V10.7832H32.877V12.082ZM51.7715 7.85742V10.8926H53.4805V12.1367H51.7715V15.0762H50.2402V7.85742H51.7715ZM42.4883 14.2969V8.73242H48.0254V9.96289H43.9922V13.0664C46.3574 13.0596 47.6768 12.9844 49.1328 12.6836L49.2832 13.9004C47.6836 14.2422 46.2275 14.2969 43.4863 14.2969H42.4883ZM43.5547 17.7422C43.5547 16.2109 45.1816 15.3086 47.7383 15.3086C50.2744 15.3086 51.874 16.2109 51.8809 17.7422C51.874 19.3008 50.2744 20.2031 47.7383 20.2031C45.1816 20.2031 43.5547 19.3008 43.5547 17.7422ZM45.0586 17.7422C45.0518 18.542 46.043 18.9863 47.7383 18.9863C49.3994 18.9863 50.3975 18.542 50.4043 17.7422C50.3975 16.9561 49.3994 16.5186 47.7383 16.5254C46.043 16.5186 45.0518 16.9561 45.0586 17.7422Z" fill="white"/>
</svg>
