<svg width="28" height="28" viewBox="0 0 28 28" fill="none" xmlns="http://www.w3.org/2000/svg">
<circle cx="14" cy="14" r="14" fill="#A9622A"/>
<path d="M14.25 21.1953C11.7988 21.166 9.09375 19.7109 9.09375 14.4766C9.09375 9.4668 11.1445 6.66406 14.4648 6.66406C16.9551 6.66406 18.6934 8.19727 19.0547 10.4141H17.3164C16.9941 9.16406 16.0371 8.22656 14.4648 8.22656C12.1406 8.22656 10.7441 10.209 10.7539 13.6172H10.9297C11.7402 12.4355 13.0391 11.7422 14.5625 11.7422C17.0723 11.7422 19.1719 13.6953 19.1719 16.4297C19.1719 19.0957 17.2285 21.2246 14.25 21.1953ZM10.9883 16.4688C10.998 18.1289 12.3555 19.6426 14.25 19.6523C16.0762 19.6426 17.4629 18.207 17.4727 16.4492C17.4629 14.7109 16.1348 13.2949 14.2891 13.2852C12.4336 13.2949 11.0078 14.7988 10.9883 16.4688Z" fill="white"/>
</svg>
