<svg width="28" height="28" viewBox="0 0 28 28" fill="none" xmlns="http://www.w3.org/2000/svg">
<circle cx="14" cy="14" r="14" fill="#884ED5"/>
<path d="M13.9707 21.1953C11.4219 21.1953 9.48828 19.623 9.38086 17.4453H11.0801C11.207 18.7051 12.4375 19.6426 13.9707 19.6523C15.8066 19.6426 17.1348 18.3047 17.1348 16.5273C17.1348 14.6914 15.7578 13.334 13.8535 13.3242C12.6621 13.3047 11.7344 13.6758 11.2168 14.5938H9.51758L10.5137 6.85938H18.1699V8.42188H11.9785L11.4512 12.5625H11.5879C12.2227 12.0742 13.1699 11.7422 14.166 11.7422C16.8613 11.7422 18.8438 13.7344 18.8535 16.4883C18.8438 19.2227 16.793 21.1953 13.9707 21.1953Z" fill="white"/>
</svg>
