<svg width="28" height="28" viewBox="0 0 28 28" fill="none" xmlns="http://www.w3.org/2000/svg">
<circle cx="14" cy="14" r="14" fill="#EF8F4C"/>
<path d="M14.2109 21.1953C11.3984 21.1953 9.37695 19.6914 9.28906 17.4453H11.0664C11.1641 18.793 12.502 19.6328 14.1914 19.6328C16.0566 19.6328 17.4043 18.627 17.4141 17.1523C17.4043 15.6094 16.1738 14.5254 13.9766 14.5156H12.8242V12.9727H13.9766C15.6953 12.9727 16.8965 12.0059 16.8867 10.5508C16.8965 9.13477 15.8613 8.19727 14.25 8.1875C12.7363 8.19727 11.3594 9.02734 11.2812 10.4141H9.58203C9.66992 8.16797 11.7598 6.66406 14.2695 6.66406C16.9648 6.66406 18.6055 8.43164 18.5859 10.4531C18.6055 12.0645 17.668 13.2363 16.1836 13.6562V13.7539C18.0293 14.0371 19.1426 15.3555 19.1328 17.1523C19.1426 19.4766 17.0332 21.1953 14.2109 21.1953Z" fill="white"/>
</svg>
