<svg width="28" height="28" viewBox="0 0 28 28" fill="none" xmlns="http://www.w3.org/2000/svg">
<circle cx="14" cy="14" r="14" fill="#DD5794"/>
<path d="M14.0547 21.1953C11.0762 21.1953 9.02539 19.5449 9.03516 17.25C9.02539 15.4238 10.2949 13.9102 11.9062 13.6562V13.5781C10.5 13.2559 9.57227 11.957 9.58203 10.4141C9.57227 8.25586 11.4668 6.66406 14.0547 6.66406C16.6328 6.66406 18.5273 8.25586 18.5469 10.4141C18.5273 11.957 17.5898 13.2559 16.2031 13.5781V13.6562C17.8047 13.9102 19.0742 15.4238 19.0938 17.25C19.0742 19.5449 17.0039 21.1953 14.0547 21.1953ZM10.793 17.1523C10.7637 18.6367 12.0234 19.6426 14.0547 19.6523C16.0762 19.6426 17.3359 18.6367 17.3359 17.1523C17.3359 15.5898 15.959 14.4375 14.0547 14.4375C12.1602 14.4375 10.7637 15.5898 10.793 17.1523ZM11.2812 10.5508C11.291 11.9766 12.4336 12.9434 14.0547 12.9531C15.666 12.9434 16.8281 11.9766 16.8281 10.5508C16.8281 9.13477 15.7051 8.17773 14.0547 8.1875C12.375 8.17773 11.291 9.13477 11.2812 10.5508Z" fill="white"/>
</svg>
