<svg width="28" height="28" viewBox="0 0 28 28" fill="none" xmlns="http://www.w3.org/2000/svg">
<circle cx="14" cy="14" r="14" fill="#C7A54E"/>
<path d="M14.0352 6.66406C16.4668 6.69336 19.1719 8.1582 19.1719 13.3633C19.1719 18.3926 17.1113 21.1953 13.8008 21.1953C11.3105 21.1953 9.5625 19.6719 9.21094 17.4258H10.9492C11.2617 18.6953 12.2285 19.6328 13.8008 19.6328C16.1055 19.6328 17.5117 17.6406 17.5312 14.2031H17.3359C16.5254 15.375 15.2266 16.0781 13.7227 16.0781C11.1934 16.0781 9.09375 14.1348 9.09375 11.4102C9.09375 8.77344 11.0273 6.63477 14.0352 6.66406ZM10.8125 11.3906C10.8027 13.1387 12.1309 14.5352 13.9766 14.5352C15.8223 14.5352 17.2578 13.0117 17.2578 11.3516C17.2578 9.73047 15.9004 8.20703 14.0352 8.20703C12.1895 8.20703 10.793 9.64258 10.8125 11.3906Z" fill="white"/>
</svg>
