<svg width="41" height="58" viewBox="0 0 41 58" fill="none" xmlns="http://www.w3.org/2000/svg">
<g filter="url(#filter0_d_395_2257)">
<path d="M6.06346 24.417C10.4282 32.3837 14.8001 40.3467 19.1839 48.3026C19.3651 48.6328 19.6953 48.8803 19.9576 49.1661H20.5287C20.7898 48.8803 21.12 48.6328 21.3024 48.3026C25.6791 40.3611 30.0414 32.4113 34.4038 24.4615C36.055 21.454 36.7954 18.2208 36.3924 14.8145C35.6902 8.8813 32.7084 4.41095 27.3625 1.78063C21.8378 -0.936176 16.3547 -0.520608 11.2258 2.86639C7.18534 5.53394 4.845 9.40977 4.16544 14.2452C3.65874 17.8412 4.32281 21.2402 6.06346 24.417Z" fill="white"/>
</g>
<path d="M6.93549 23.9038C11.0296 31.3768 15.1308 38.8462 19.2428 46.3096C19.4133 46.6195 19.7221 46.8513 19.9689 47.1192H20.5042C20.7486 46.8513 21.0586 46.6195 21.2302 46.3096C25.3363 38.8607 29.428 31.4033 33.5197 23.9459C35.0684 21.1246 35.7634 18.0919 35.3855 14.8971C34.7262 9.33135 31.9292 5.13724 26.9148 2.67026C21.7322 0.12161 16.5889 0.511955 11.7783 3.68876C7.98822 6.19058 5.79333 9.82619 5.1555 14.3626C4.6798 17.7352 5.30333 20.924 6.93549 23.9038Z" fill="#0B8800"/>
<g clip-path="url(#clip0_395_2257)">
<path d="M15.5558 21.5555H18.2225V17.7778H19.1114V15.3333C19.1114 14.8444 18.938 14.4267 18.5869 14.0755C18.2358 13.7244 17.818 13.5511 17.3291 13.5511H16.4402C15.9514 13.5511 15.5336 13.7244 15.1825 14.0755C14.8358 14.4222 14.658 14.8444 14.658 15.3333V17.7778H15.5469V21.5555H15.5558ZM16.8891 12.8C17.2314 12.8 17.5247 12.6755 17.7691 12.4311C18.0136 12.1867 18.138 11.8933 18.138 11.5511C18.138 11.2089 18.0136 10.9155 17.7691 10.6711C17.5247 10.4267 17.2314 10.3022 16.8891 10.3022C16.5469 10.3022 16.2536 10.4267 16.0091 10.6711C15.7647 10.9155 15.6402 11.2089 15.6402 11.5511C15.6402 11.8933 15.7647 12.1867 16.0091 12.4311C16.2536 12.6755 16.5469 12.8 16.8891 12.8ZM20.778 14.8889H25.2225L23.0002 11.3333L20.778 14.8889ZM23.0002 20.6667L25.2225 17.1111H20.778L23.0002 20.6667ZM13.3336 24C12.978 24 12.6669 23.8667 12.4002 23.6C12.1336 23.3333 12.0002 23.0222 12.0002 22.6667V9.33332C12.0002 8.9911 12.1336 8.68443 12.4002 8.40888C12.6669 8.13332 12.978 7.99554 13.3336 7.99554H26.6669C27.0091 7.99554 27.3158 8.13332 27.5914 8.40888C27.8669 8.68443 28.0047 8.9911 28.0047 9.33332V22.6667C28.0047 23.0222 27.8669 23.3333 27.5914 23.6C27.3158 23.8667 27.0091 24 26.6669 24H13.3336ZM13.3336 22.6667H26.6669V9.33332H13.3336V22.6667Z" fill="white"/>
</g>
<defs>
<filter id="filter0_d_395_2257" x="0" y="0" width="40.5002" height="57.1661" filterUnits="userSpaceOnUse" color-interpolation-filters="sRGB">
<feFlood flood-opacity="0" result="BackgroundImageFix"/>
<feColorMatrix in="SourceAlpha" type="matrix" values="0 0 0 0 0 0 0 0 0 0 0 0 0 0 0 0 0 0 127 0" result="hardAlpha"/>
<feOffset dy="4"/>
<feGaussianBlur stdDeviation="2"/>
<feComposite in2="hardAlpha" operator="out"/>
<feColorMatrix type="matrix" values="0 0 0 0 0 0 0 0 0 0 0 0 0 0 0 0 0 0 0.25 0"/>
<feBlend mode="normal" in2="BackgroundImageFix" result="effect1_dropShadow_395_2257"/>
<feBlend mode="normal" in="SourceGraphic" in2="effect1_dropShadow_395_2257" result="shape"/>
</filter>
<clipPath id="clip0_395_2257">
<rect width="16" height="16" fill="white" transform="translate(12.0002 8)"/>
</clipPath>
</defs>
</svg>
